<svg xmlns="http://www.w3.org/2000/svg" width="100" height="100" id="comment"><path d="M74 43c0 1.1-.9 2-2 2H28c-1.1 0-2-.9-2-2s.9-2 2-2h44c1.1 0 2 .9 2 2zm-14.2 8H28c-1.1 0-2 .9-2 2s.9 2 2 2h31.8c1.1 0 2-.9 2-2s-.9-2-2-2zM72 31H28c-1.1 0-2 .9-2 2s.9 2 2 2h44c1.1 0 2-.9 2-2s-.9-2-2-2zm16-12v48c0 1.1-.9 2-2 2H47L33.4 82.4c-.5.6-3.4 1.4-3.4-1.4V69H14c-1.1 0-2-.9-2-2V19c0-1.1.9-2 2-2h72c1.1 0 2 .9 2 2zm-4 2H16v44h16c1.1 0 2 .9 2 2v9.2l10.8-10.6c.4-.4.9-.6 1.4-.6H84V21z" fill="#1fbc0e"/><path fill="#08086b" d="M1224-510v1684H-560V-510h1784m8-8H-568v1700h1800V-518z"/></svg>