<svg xmlns="http://www.w3.org/2000/svg" viewBox="0 0 64 64" id="listening"><g data-name="Glyph"><path d="M32 34A11 11 0 1021 23 11.007 11.007 0 0032 34zM28.7 18.58a.5.5 0 01.75-.44l7.86 4.5a.5.5 0 01-.01.87l-7.86 4.35a.5.5 0 01-.74-.44zM32 38a1 1 0 00-1 1V57a1 1 0 002 0V39A1 1 0 0032 38zM28 41a1 1 0 00-1 1V54a1 1 0 002 0V42A1 1 0 0028 41zM36 41a1 1 0 00-1 1V54a1 1 0 002 0V42A1 1 0 0036 41zM24 44a1 1 0 00-1 1v6a1 1 0 002 0V45A1 1 0 0024 44zM40 44a1 1 0 00-1 1v6a1 1 0 002 0V45A1 1 0 0040 44z" fill="#1fbc0e"/><path d="M32,2C15.91,1.66,1.66,15.91,2,32V46a5.017,5.017,0,0,0,4,4.9V56a3.009,3.009,0,0,0,3,3h1a2.914,2.914,0,0,0,2.8,3h5.4A2.914,2.914,0,0,0,21,59V38a2.914,2.914,0,0,0-2.8-3H12.8A2.914,2.914,0,0,0,10,38H9a3,3,0,0,0-1,.18V32a23.837,23.837,0,0,1,6.46-16.36,2.979,2.979,0,0,0,3.29-.4,22,22,0,0,1,28.5,0,2.979,2.979,0,0,0,3.29.4A23.837,23.837,0,0,1,56,32v6.18A3,3,0,0,0,55,38H54a2.914,2.914,0,0,0-2.8-3H45.8A2.914,2.914,0,0,0,43,38V59a2.914,2.914,0,0,0,2.8,3h5.4A2.914,2.914,0,0,0,54,59h1a3.009,3.009,0,0,0,3-3V50.9A5.017,5.017,0,0,0,62,46V32C62.34,15.91,48.09,1.66,32,2ZM6,42H4V40H6Zm3-2h1V57H9a1,1,0,0,1-1-1V41A1,1,0,0,1,9,40ZM6.02,31h-2a27.771,27.771,0,0,1,7.49-18.07l1.42,1.41A25.769,25.769,0,0,0,6.02,31ZM56,56a1,1,0,0,1-1,1H54V40h1a1,1,0,0,1,1,1Zm4-14H58V40h2ZM57.98,31a25.769,25.769,0,0,0-6.91-16.66l1.42-1.41A27.771,27.771,0,0,1,59.98,31Z" fill="#1fbc0e"/></g></svg>